# xmcd
#
# Track frame offsets:
#	150
#	26972
#	51877
#	71090
#	94115
#	112432
#	127270
#	151130
#	169285
#	188230
#	204390
#	228625
#
# Disc length: 3254 seconds
#
# Revision: 1
# Processed by: cddbd v1.5.1PL0 Copyright (c) Steve Scherf et al.
# Submitted via: CDex 1.50Beta5
#
DISCID=b70cb40c
DTITLE=インストゥルメンタル - 長渕剛・ソング・ブック
DYEAR=1988
DGENRE=
TTITLE0=NEVER CHANGE
TTITLE1=乾杯
TTITLE2=HOLD YOUR LAST CHANCE
TTITLE3=STAY DREAM
TTITLE4=ヒロイン
TTITLE5=順子
TTITLE6=Don’t Cry My Love
TTITLE7=涙のセレナーデ
TTITLE8=ろくなもんじゃねえ
TTITLE9=巡恋歌
TTITLE10=勇次
TTITLE11=GOOD-BYE青春
EXTD=
EXTT0=
EXTT1=
EXTT2=
EXTT3=
EXTT4=
EXTT5=
EXTT6=
EXTT7=
EXTT8=
EXTT9=
EXTT10=
EXTT11=
PLAYORDER=
